<?xml version="1.0" encoding="UTF-8"?>
<!DOCTYPE svg PUBLIC "-//W3C//DTD SVG 1.1//EN" "http://www.w3.org/Graphics/SVG/1.1/DTD/svg11.dtd">
<!-- Creator: CorelDRAW 2021 (64-Bit) -->
<svg xmlns="http://www.w3.org/2000/svg" xml:space="preserve" width="637px" height="114px" version="1.1" shape-rendering="geometricPrecision" text-rendering="geometricPrecision" image-rendering="optimizeQuality" fill-rule="evenodd" clip-rule="evenodd"
viewBox="0 0 67.92 12.18"
 xmlns:xlink="http://www.w3.org/1999/xlink"
 xmlns:xodm="http://www.corel.com/coreldraw/odm/2003">
 <g id="Layer_x0020_1">
  <metadata id="CorelCorpID_0Corel-Layer"/>
  <path fill="white" fill-rule="nonzero" d="M4.09 7.36c2.52,0 4.06,-1.47 4.06,-3.66 0,-2.19 -1.54,-3.71 -4.06,-3.7 -2.48,0.01 -4.09,1.52 -4.09,3.71 0,2.17 1.61,3.64 4.09,3.65zm-3.26 -3.67c0,-1.75 1.22,-2.84 3.26,-2.85 2.03,-0.01 3.22,1.11 3.22,2.86 0,1.74 -1.16,2.82 -3.22,2.82 -2.04,-0.01 -3.26,-1.08 -3.26,-2.83zm7.12 3.6l1.05 0 1.97 -2.83 2.24 2.83 1.04 0 -2.79 -3.6 2.58 -3.63 -1.03 0 -2.06 2.89 -2.22 -2.89 -1.03 0 2.74 3.65 -2.49 3.58zm10.48 0.16c1.98,0 3.14,-1.25 3.14,-3.09l0 -4.29 -0.83 0 -0.01 4.27c0,1.36 -0.76,2.28 -2.3,2.28 -1.58,0 -2.42,-0.98 -2.42,-2.33l0.01 -4.22 -0.83 0 -0.01 4.24c0,1.81 1.2,3.14 3.25,3.14zm4.06 -0.16l0.83 0 0.02 -7.23 -0.83 0 -0.02 7.23zm3.93 0l4.09 0c2.51,0 3.56,-1.78 3.56,-3.68 0,-1.76 -1.04,-3.55 -3.54,-3.55l-4.08 0 -0.03 7.23zm0.84 -0.82l0.02 -5.58 3.25 0c1.88,0 2.7,1.46 2.7,2.72 0,1.4 -0.83,2.85 -2.72,2.85l-3.25 0.01zm7.74 0.82l6.55 0 0 -0.84 -5.71 0 0 -2.37 4.31 0 0 -0.84 -4.31 0 0 -2.34 5.69 0 0 -0.84 -6.53 0 0 7.23zm7.93 0l3.97 0c1.26,0 2.03,-0.81 2.03,-1.88 0.01,-1.12 -0.83,-1.93 -2.07,-1.93l-2.14 0c-0.95,0 -1.41,-0.57 -1.41,-1.27 0,-1.25 1.13,-1.29 2.15,-1.29l3.17 0 0 -0.86 -3.14 0c-1.44,0 -3.01,0.27 -3.02,2.13 -0.01,1.18 0.84,2.13 2.25,2.13l2.24 0c0.67,0 1.14,0.39 1.14,1.07 0,0.62 -0.42,1.06 -1.14,1.06l-4.03 0 0 0.84zm6.93 0l0.83 0 0.02 -7.23 -0.83 0 -0.02 7.23zm5.75 0.07c2.65,0 4.18,-1.61 4.09,-3.91l-5.04 0 0 0.85 4.07 0c-0.23,1.42 -1.34,2.22 -3.12,2.22 -2.04,-0.01 -3.26,-1.08 -3.26,-2.83 0,-1.75 1.22,-2.85 3.26,-2.85 1.39,-0.01 2.38,0.52 2.87,1.4l0.83 -0.22c-0.59,-1.24 -1.9,-2.03 -3.7,-2.02 -2.49,0.01 -4.09,1.5 -4.09,3.69 0,2.18 1.6,3.66 4.09,3.67zm5.02 -0.07l0.84 0 0 -5.77 5.83 5.77 0.62 0 0 -7.23 -0.84 0 0 5.8 -5.85 -5.8 -0.6 0 0 7.23z"/>
  <path fill="white" d="M19.2 10.78c0.04,0.03 0.08,0.06 0.13,0.1 0.14,0.13 0.18,0.34 0.18,0.52l0 0.04c0,0.62 -0.42,0.74 -0.96,0.74l-1.46 0c-0.06,0 -0.11,-0.04 -0.11,-0.11l0 -2.57c0,-0.07 0.05,-0.11 0.11,-0.11l1.43 0c0.55,0 0.97,0.14 0.97,0.76l0 0.03c0,0.18 -0.03,0.38 -0.17,0.5 -0.04,0.04 -0.08,0.08 -0.12,0.1zm1.6 0.64l-1.36 -1.87c-0.06,-0.06 -0.02,-0.16 0.08,-0.16l0.09 0c0.05,0 0.08,0.01 0.11,0.05l1.23 1.68 1.2 -1.68c0.02,-0.04 0.06,-0.05 0.1,-0.05l0.09 0c0.1,0 0.14,0.1 0.08,0.16l-1.33 1.87 0 0.65c0,0.07 -0.04,0.11 -0.11,0.11l-0.07 0c-0.07,0 -0.11,-0.04 -0.11,-0.11l0 -0.65zm4.18 0.76l-0.68 0c-0.25,0 -0.56,-0.03 -0.75,-0.21 -0.17,-0.18 -0.21,-0.47 -0.22,-0.72 0,-0.06 0.05,-0.11 0.11,-0.11l0.08 0c0.07,0 0.11,0.05 0.11,0.11 0,0.15 0.02,0.4 0.13,0.51 0.12,0.11 0.38,0.13 0.54,0.13l0.68 0c0.16,0 0.44,-0.01 0.57,-0.11 0.12,-0.08 0.14,-0.25 0.14,-0.38 0,-0.11 -0.02,-0.25 -0.12,-0.32 -0.12,-0.08 -0.37,-0.11 -0.51,-0.12l-0.81 -0.07c-0.21,-0.02 -0.51,-0.06 -0.68,-0.18 -0.17,-0.13 -0.22,-0.35 -0.22,-0.55 0,-0.22 0.05,-0.45 0.23,-0.59 0.2,-0.16 0.53,-0.18 0.77,-0.18l0.63 0c0.25,0 0.56,0.03 0.74,0.21 0.18,0.18 0.22,0.47 0.23,0.71 0,0.07 -0.05,0.11 -0.11,0.11l-0.08 0c-0.07,0 -0.11,-0.04 -0.11,-0.1 0,-0.15 -0.02,-0.4 -0.14,-0.51 -0.11,-0.11 -0.38,-0.13 -0.53,-0.13l-0.63 0c-0.15,0 -0.44,0.01 -0.57,0.1 -0.11,0.09 -0.13,0.26 -0.13,0.38 0,0.11 0.01,0.26 0.11,0.32 0.12,0.08 0.38,0.1 0.52,0.12l0.8 0.06c0.21,0.02 0.5,0.06 0.68,0.19 0.18,0.13 0.22,0.34 0.22,0.55 0,0.22 -0.04,0.46 -0.23,0.6 -0.19,0.16 -0.53,0.18 -0.77,0.18zm2.99 0l-0.77 0c-0.25,0 -0.56,-0.04 -0.74,-0.24 -0.18,-0.2 -0.22,-0.49 -0.22,-0.74l0 -1.7c0,-0.07 0.04,-0.11 0.11,-0.11l0.08 0c0.06,0 0.11,0.04 0.11,0.11l0 1.7c0,0.16 0.01,0.42 0.14,0.54 0.12,0.13 0.36,0.15 0.52,0.15l0.77 0c0.16,0 0.4,-0.02 0.52,-0.15 0.13,-0.12 0.14,-0.38 0.14,-0.54l0 -1.7c0,-0.07 0.05,-0.11 0.11,-0.11l0.08 0c0.06,0 0.11,0.04 0.11,0.11l0 1.7c0,0.25 -0.04,0.54 -0.22,0.74 -0.18,0.2 -0.49,0.24 -0.74,0.24zm1.6 -2.5l0 0.91 1.4 0c0.07,0 0.11,0.05 0.11,0.12l0 0.07c0,0.07 -0.04,0.11 -0.11,0.11l-1.4 0 0 1 1.98 0c0.06,0 0.11,0.04 0.11,0.11l0 0.07c0,0.07 -0.05,0.11 -0.11,0.11l-2.17 0c-0.07,0 -0.11,-0.04 -0.11,-0.11l0 -2.57c0,-0.07 0.04,-0.11 0.11,-0.11l2.17 0c0.06,0 0.11,0.04 0.11,0.11l0 0.07c0,0.07 -0.05,0.11 -0.11,0.11l-1.98 0zm4.07 2.5l-1.64 0c-0.07,0 -0.11,-0.04 -0.11,-0.11l0 -2.57c0,-0.07 0.04,-0.11 0.11,-0.11l1.64 0c0.26,0 0.57,0.04 0.74,0.25 0.19,0.21 0.22,0.55 0.22,0.81l0 0.68c0,0.26 -0.03,0.6 -0.22,0.81 -0.18,0.2 -0.49,0.24 -0.74,0.24zm4 0l-0.91 0c-0.26,0 -0.57,-0.04 -0.75,-0.24 -0.17,-0.2 -0.21,-0.49 -0.21,-0.74l0 -0.83c0,-0.25 0.04,-0.54 0.21,-0.74 0.18,-0.2 0.49,-0.24 0.75,-0.24l0.91 0c0.26,0 0.57,0.04 0.75,0.24 0.17,0.2 0.21,0.49 0.21,0.74l0 0.83c0,0.25 -0.04,0.54 -0.21,0.74 -0.18,0.2 -0.49,0.24 -0.75,0.24zm3.51 -0.44l0 -2.24c0,-0.07 0.04,-0.11 0.11,-0.11l0.08 0c0.06,0 0.11,0.04 0.11,0.11l0 2.57c0,0.07 -0.05,0.11 -0.11,0.11l-0.13 0c-0.04,0 -0.08,-0.02 -0.1,-0.05l-1.93 -2.28 0 2.22c0,0.07 -0.05,0.11 -0.11,0.11l-0.08 0c-0.06,0 -0.11,-0.04 -0.11,-0.11l0 -2.57c0,-0.07 0.05,-0.11 0.11,-0.11l0.11 0c0.04,0 0.08,0.01 0.1,0.05l1.95 2.3zm0.81 0.44l-0.08 0c-0.06,0 -0.11,-0.04 -0.11,-0.11l0 -2.57c0,-0.07 0.05,-0.11 0.11,-0.11l0.08 0c0.07,0 0.11,0.04 0.11,0.11l0 2.57c0,0.07 -0.04,0.11 -0.11,0.11zm2.71 -0.44l0 -2.24c0,-0.07 0.04,-0.11 0.11,-0.11l0.07 0c0.07,0 0.11,0.04 0.11,0.11l0 2.57c0,0.07 -0.04,0.11 -0.11,0.11l-0.12 0c-0.04,0 -0.08,-0.02 -0.1,-0.05l-1.94 -2.28 0 2.22c0,0.07 -0.04,0.11 -0.11,0.11l-0.07 0c-0.07,0 -0.11,-0.04 -0.11,-0.11l0 -2.57c0,-0.07 0.04,-0.11 0.11,-0.11l0.11 0c0.04,0 0.07,0.01 0.1,0.05l1.95 2.3zm0.91 -2.06l0 0.91 1.41 0c0.07,0 0.11,0.05 0.11,0.12l0 0.07c0,0.07 -0.04,0.11 -0.11,0.11l-1.41 0 0 1 1.99 0c0.06,0 0.11,0.04 0.11,0.11l0 0.07c0,0.07 -0.05,0.11 -0.11,0.11l-2.17 0c-0.07,0 -0.11,-0.04 -0.11,-0.11l0 -2.57c0,-0.07 0.04,-0.11 0.11,-0.11l2.17 0c0.06,0 0.11,0.04 0.11,0.11l0 0.07c0,0.07 -0.05,0.11 -0.11,0.11l-1.99 0zm3.84 1.66l1.22 -1.89c0.02,-0.04 0.06,-0.06 0.11,-0.06l0.08 0c0.07,0 0.11,0.04 0.11,0.11l0 2.57c0,0.07 -0.04,0.11 -0.11,0.11l-0.08 0c-0.06,0 -0.11,-0.04 -0.11,-0.11l0 -2.11 -1.06 1.67c-0.03,0.03 -0.06,0.06 -0.11,0.06l-0.09 0c-0.05,0 -0.08,-0.03 -0.11,-0.06l-1.07 -1.68 0 2.12c0,0.07 -0.04,0.11 -0.11,0.11l-0.07 0c-0.07,0 -0.11,-0.04 -0.11,-0.11l0 -2.57c0,-0.07 0.04,-0.11 0.11,-0.11l0.09 0c0.04,0 0.08,0.02 0.1,0.06l1.21 1.89zm-32.14 -1.66l0 0.95 1.41 0c0.33,0 0.5,-0.09 0.5,-0.45l0 -0.03c0,-0.44 -0.29,-0.47 -0.67,-0.47l-1.24 0zm0 1.25l0 0.96 1.27 0c0.15,0 0.4,-0.01 0.53,-0.11 0.11,-0.08 0.13,-0.22 0.13,-0.34l0 -0.04c0,-0.35 -0.18,-0.47 -0.52,-0.47l-1.41 0zm14.9 -1.25l0 2.21 1.46 0c0.16,0 0.41,-0.02 0.53,-0.15 0.12,-0.14 0.13,-0.44 0.13,-0.61l0 -0.68c0,-0.17 -0.01,-0.47 -0.13,-0.61 -0.12,-0.14 -0.37,-0.16 -0.53,-0.16l-1.46 0zm4.55 2.21l0.91 0c0.16,0 0.41,-0.02 0.53,-0.15 0.12,-0.12 0.14,-0.38 0.14,-0.54l0 -0.83c0,-0.16 -0.02,-0.42 -0.14,-0.54 -0.13,-0.13 -0.36,-0.15 -0.53,-0.15l-0.91 0c-0.17,0 -0.4,0.02 -0.53,0.15 -0.12,0.12 -0.14,0.38 -0.14,0.54l0 0.83c0,0.16 0.02,0.42 0.14,0.54 0.12,0.13 0.37,0.15 0.53,0.15z"/>
 </g>
</svg>
